# xmcd
#
# Track frame offsets:
#	150
#	31175
#	49807
#	73622
#	88060
#	109157
#	124425
#	146870
#	170595
#	193575
#	209962
#	228107
#	241077
#	261857
#	279957
#
# Disc length: 4095 seconds
#
# Revision: 3
# Processed by: cddbd v1.5.2PL0 Copyright (c) Steve Scherf et al.
# Submitted via: audiograbber 1.83.01
#
DISCID=e20ffd0f
DTITLE=Wolfgang Ambros - Live...auf ana langen finster'n Stross'n
DYEAR=1979
DGENRE=AustroPop
TTITLE0=Allan wia a Stan
TTITLE1=I bin's ned
TTITLE2=Wie wird des weitergehn
TTITLE3=De No. 1 vom Wienerwald
TTITLE4=Du bist wia de Wintasunn
TTITLE5=Wahre Liebe
TTITLE6=Der Berg
TTITLE7=Es lebe der Zentralfriedhof
TTITLE8=Schifoan
TTITLE9=Minderheit
TTITLE10=Schaffnerlos
TTITLE11=Des Sandler's Flucht
TTITLE12=Da Hofa
TTITLE13=Zwickt's mi
TTITLE14=Du schwoaza Afghane
EXTD=
EXTT0=
EXTT1=
EXTT2=
EXTT3=
EXTT4=
EXTT5=
EXTT6=
EXTT7=
EXTT8=
EXTT9=
EXTT10=
EXTT11=
EXTT12=
EXTT13=
EXTT14=
PLAYORDER=
